<svg width="10" height="2" viewBox="0 0 10 2" fill="none" xmlns="http://www.w3.org/2000/svg">
<path d="M1.1539 1.99997C0.878909 1.99997 0.643497 1.90205 0.447664 1.70622C0.251842 1.51038 0.153931 1.27497 0.153931 0.999984C0.153931 0.724995 0.251842 0.489583 0.447664 0.29375C0.643497 0.0979167 0.878909 0 1.1539 0C1.4289 0 1.66431 0.0979167 1.86013 0.29375C2.05596 0.489583 2.15388 0.724995 2.15388 0.999984C2.15388 1.27497 2.05596 1.51038 1.86013 1.70622C1.66431 1.90205 1.4289 1.99997 1.1539 1.99997ZM5.00005 1.99997C4.72506 1.99997 4.48965 1.90205 4.29381 1.70622C4.09798 1.51038 4.00006 1.27497 4.00006 0.999984C4.00006 0.724995 4.09798 0.489583 4.29381 0.29375C4.48965 0.0979167 4.72506 0 5.00005 0C5.27504 0 5.51045 0.0979167 5.70628 0.29375C5.90211 0.489583 6.00003 0.724995 6.00003 0.999984C6.00003 1.27497 5.90211 1.51038 5.70628 1.70622C5.51045 1.90205 5.27504 1.99997 5.00005 1.99997ZM8.8462 1.99997C8.5712 1.99997 8.33579 1.90205 8.13996 1.70622C7.94413 1.51038 7.84621 1.27497 7.84621 0.999984C7.84621 0.724995 7.94413 0.489583 8.13996 0.29375C8.33579 0.0979167 8.5712 0 8.8462 0C9.12119 0 9.3566 0.0979167 9.55243 0.29375C9.74825 0.489583 9.84617 0.724995 9.84617 0.999984C9.84617 1.27497 9.74825 1.51038 9.55243 1.70622C9.3566 1.90205 9.12119 1.99997 8.8462 1.99997Z" fill="#010D25" fill-opacity="0.67"/>
</svg>
