<svg width="12" height="12" viewBox="0 0 12 12" fill="none" xmlns="http://www.w3.org/2000/svg">
<path d="M2.02937 10.6667H9.95377L8.32939 9.04228C8.00716 9.29271 7.64883 9.48716 7.25439 9.62563C6.85994 9.76408 6.44178 9.83331 5.9999 9.83331C5.55802 9.83331 5.13986 9.76237 4.74542 9.62049C4.35097 9.47862 3.99264 9.28246 3.67042 9.03203L2.02937 10.6667ZM1.33324 9.95386L2.95762 8.32948C2.70719 8.00726 2.51274 7.64892 2.37427 7.25448C2.23581 6.86003 2.16659 6.44187 2.16659 5.99999C2.16659 5.55812 2.23752 5.13996 2.3794 4.74551C2.52128 4.35107 2.71744 3.99273 2.96787 3.67051L1.33324 2.02946V9.95386ZM3.68067 7.60643L5.29735 5.99999L3.68067 4.39356C3.51571 4.62348 3.38879 4.87199 3.29989 5.13909C3.211 5.40618 3.16655 5.69315 3.16655 5.99999C3.16655 6.30684 3.211 6.59381 3.29989 6.86089C3.38879 7.12799 3.51571 7.37651 3.68067 7.60643ZM5.9999 8.83335C6.30675 8.83335 6.59371 8.7889 6.8608 8.70001C7.1279 8.61111 7.37641 8.48418 7.60634 8.31923L5.9999 6.69613L4.3768 8.31923C4.60672 8.48418 4.85801 8.61111 5.13067 8.70001C5.40331 8.7889 5.69306 8.83335 5.9999 8.83335ZM5.9999 5.28719L7.60634 3.68076C7.37641 3.51581 7.1279 3.38888 6.8608 3.29998C6.59371 3.21109 6.30675 3.16664 5.9999 3.16664C5.69306 3.16664 5.40609 3.21109 5.139 3.29998C4.8719 3.38888 4.62339 3.51581 4.39347 3.68076L5.9999 5.28719ZM8.31914 7.60643C8.48409 7.37651 8.61102 7.12799 8.69992 6.86089C8.78881 6.59381 8.83325 6.30684 8.83325 5.99999C8.83325 5.69315 8.78881 5.40341 8.69992 5.13076C8.61102 4.85811 8.48409 4.60682 8.31914 4.37689L6.7127 5.98333L8.31914 7.60643ZM10.6666 9.95386V2.02946L9.03194 3.67051C9.28237 3.99273 9.47853 4.35107 9.6204 4.74551C9.76228 5.13996 9.83322 5.55812 9.83322 5.99999C9.83322 6.44187 9.76399 6.86003 9.62554 7.25448C9.48707 7.64892 9.29262 8.00726 9.04219 8.32948L10.6666 9.95386ZM8.32939 2.96796L9.97044 1.33333H2.04604L3.67042 2.95771C3.99264 2.70728 4.35097 2.51283 4.74542 2.37436C5.13986 2.2359 5.55802 2.16668 5.9999 2.16668C6.44178 2.16668 6.85994 2.23762 7.25439 2.37949C7.64883 2.52137 8.00716 2.71753 8.32939 2.96796ZM1.53839 11.6666C1.20163 11.6666 0.916585 11.55 0.683252 11.3166C0.449919 11.0833 0.333252 10.7983 0.333252 10.4615V1.53848C0.333252 1.20172 0.449919 0.916677 0.683252 0.683344C0.916585 0.45001 1.20163 0.333344 1.53839 0.333344H10.4614C10.7982 0.333344 11.0832 0.45001 11.3166 0.683344C11.5499 0.916677 11.6666 1.20172 11.6666 1.53848V10.4615C11.6666 10.794 11.5499 11.078 11.3166 11.3134C11.0832 11.5489 10.7982 11.6666 10.4614 11.6666H1.53839Z" fill="#010D25" fill-opacity="0.67"/>
</svg>
